Coordinates
version=1
nRows=11
nColumns=63
inDegrees=yes

Units are S.I. units (second, meters, Newtons, ...)
If the header above contains a line with 'inDegrees', this indicates whether rotational values are in degrees (yes) or radians (no).

endheader
time	pelvis_tilt	pelvis_list	pelvis_rotation	pelvis_tx	pelvis_ty	pelvis_tz	hip_flexion_r	hip_adduction_r	hip_rotation_r	knee_angle_r	knee_angle_r_beta	ankle_angle_r	subtalar_angle_r	mtp_angle_r	hip_flexion_l	hip_adduction_l	hip_rotation_l	knee_angle_l	knee_angle_l_beta	ankle_angle_l	subtalar_angle_l	mtp_angle_l	L5_S1_Flex_Ext	L5_S1_Lat_Bending	L5_S1_axial_rotation	L4_L5_Flex_Ext	L4_L5_Lat_Bending	L4_L5_axial_rotation	L3_L4_Flex_Ext	L3_L4_Lat_Bending	L3_L4_axial_rotation	L2_L3_Flex_Ext	L2_L3_Lat_Bending	L2_L3_axial_rotation	L1_L2_Flex_Ext	L1_L2_Lat_Bending	L1_L2_axial_rotation	L1_T12_Flex_Ext	L1_T12_Lat_Bending	L1_T12_axial_rotation	Abs_r3	Abs_r2	Abs_r1	Abs_t1	Abs_t2	neck_flexion	neck_bending	neck_rotation	arm_flex_r	arm_add_r	arm_rot_r	elbow_flex_r	pro_sup_r	wrist_flex_r	wrist_dev_r	arm_flex_l	arm_add_l	arm_rot_l	elbow_flex_l	pro_sup_l	wrist_flex_l	wrist_dev_l
      0.00000000	     -1.32523075	     -3.36242254	     76.97839986	      0.31858835	      0.79833444	      0.54295010	      1.32034918	     -3.65912616	     21.43039086	      0.64520201	      0.01126090	     18.17103426	    -13.29262494	      0.00000000	     -0.98609564	      2.02255031	     -4.38511942	      0.61320209	      0.01070240	     24.09161980	     -9.89099352	      0.00000000	     -0.02201088	     -0.34985467	      3.24338508	     -0.04087640	     -0.46530672	      3.44609665	     -0.03616167	     -0.85063665	      3.44609665	     -0.02515623	     -0.85063665	      2.83796195	     -0.02043930	     -0.71342365	      2.63525038	     -0.01257701	     -0.54192489	      2.43253881	     -0.15722148	     -3.95762603	     18.03873481	      0.00000000	      0.00000000	      6.62103228	     -3.31434692	     -3.80131287	    -32.26596364	    -82.28693347	      8.55053296	     12.48091108	      5.48494745	    -11.29912660	      5.57560117	    -46.13581196	    -87.12254888	    -21.99519625	      5.72845960	     70.87442952	    -13.57160581	      7.91558142
      0.01666667	     -2.03231728	     -3.35528706	     77.17456820	      0.31982757	      0.79817378	      0.54283977	      1.43173225	     -4.30622444	     20.49194252	      0.64497204	      0.01125689	     18.18914724	    -12.21509992	      0.00000000	     -0.79908471	      2.63147365	     -3.19708814	      0.55725405	      0.00972592	     23.51779293	    -11.19088395	      0.00000000	     -0.02195750	     -0.41898467	      3.19436199	     -0.04077728	     -0.55724962	      3.39400962	     -0.03607398	     -1.01871934	      3.39400962	     -0.02509523	     -1.01871934	      2.79506674	     -0.02038974	     -0.85439355	      2.59541912	     -0.01254652	     -0.64900726	      2.39577149	     -0.15684025	     -4.73963843	     17.76608309	      0.00000000	      0.00000000	      6.39053794	     -3.16951090	     -2.38125551	    -37.66448046	    -82.31572146	     13.30988567	     11.38119796	      5.50034496	    -10.80297301	      6.08335423	    -44.71265892	    -86.60786384	    -22.96859746	      6.19110290	     68.11903803	    -12.28369146	      8.01618921
      0.03333333	     -2.61326041	     -3.30410089	     77.30220902	      0.32103097	      0.79816363	      0.54294632	      1.48532435	     -4.82888628	     20.24062538	      0.64188602	      0.01120302	     18.11870165	    -12.11033032	      0.00000000	     -0.68073699	      3.12679452	     -2.94197808	      0.52330887	      0.00913346	     23.22882874	    -11.31794947	      0.00000000	     -0.02644176	     -0.47692719	      3.10620222	     -0.04910499	     -0.63431317	      3.30033986	     -0.04344117	     -1.15960078	      3.30033986	     -0.03022029	     -1.15960078	      2.71792694	     -0.02455382	     -0.97254993	      2.52378931	     -0.01510882	     -0.73876022	      2.32965167	     -0.18887084	     -5.39509578	     17.27576490	      0.00000000	      0.00000000	      6.48491907	     -3.01712389	     -0.92101092	    -39.54822869	    -81.97012356	     14.32996338	     10.73167366	      5.93877450	    -10.83858463	      6.53756798	    -43.38763099	    -85.91021499	    -24.33740363	      6.18714370	     66.66455086	    -11.29791057	      8.00404857
      0.05000000	     -2.95417668	     -3.29586100	     77.59647032	      0.32148796	      0.79807695	      0.54290473	      1.50066240	     -5.14805150	     19.50265975	      0.64354002	      0.01123189	     18.34371325	    -11.42233437	      0.00000000	     -0.58128735	      3.41847843	     -1.61315645	      0.48676582	      0.00849567	     22.67604254	    -12.87184491	      0.00000000	     -0.02891431	     -0.50073912	      2.98858017	     -0.05369677	     -0.66598303	      3.17536643	     -0.04750332	     -1.21749711	      3.17536643	     -0.03304617	     -1.21749711	      2.61500765	     -0.02684983	     -1.02110722	      2.42822139	     -0.01652164	     -0.77564490	      2.24143512	     -0.20653203	     -5.66446112	     16.62158631	      0.00000000	      0.00000000	      6.96120117	     -2.89013839	      0.51145570	    -42.87296079	    -81.89443374	     13.26889608	     10.70443179	      4.67873608	    -10.87616141	      6.68283563	    -41.93677064	    -85.07988131	    -25.52130293	      6.22051101	     65.87486106	    -10.70379706	      7.68738405
      0.06666667	     -3.19868421	     -3.25667665	     77.74360435	      0.32210222	      0.79807098	      0.54300759	      1.48424044	     -5.36067638	     19.45556125	      0.63886485	      0.01115030	     18.42325962	    -11.54269684	      0.00000000	     -0.53909578	      3.62020606	     -1.40255968	      0.46540853	      0.00812291	     22.53435073	    -13.06245119	      0.00000000	     -0.03384140	     -0.51894981	      2.87703050	     -0.06284686	     -0.69020324	      3.05684491	     -0.05559803	     -1.26177456	      3.05684491	     -0.03867734	     -1.26177456	      2.51740169	     -0.03142512	     -1.05824245	      2.33758729	     -0.01933698	     -0.80385325	      2.15777288	     -0.24172573	     -5.87046401	     16.00118056	      0.00000000	      0.00000000	      7.63181420	     -2.64273989	      1.90410731	    -43.67898762	    -81.87595390	     12.95259312	     10.60752363	      4.63536524	    -11.04816456	      7.08479527	    -40.93245932	    -84.32445552	    -26.34888119	      5.92838537	     65.63443043	    -10.10637338	      7.30420728
      0.08333333	     -3.21793704	     -3.21551012	     77.87351595	      0.32218348	      0.79801354	      0.54309511	      1.42040932	     -5.37258048	     19.63178853	      0.63319671	      0.01105137	     18.51533211	    -11.96112040	      0.00000000	     -0.55591363	      3.63282936	     -0.78594927	      0.45095188	      0.00787060	     22.26266020	    -13.80380624	      0.00000000	     -0.04171710	     -0.50445124	      2.82561717	     -0.07747282	     -0.67092015	      3.00221824	     -0.06853702	     -1.22652275	      3.00221824	     -0.04767847	     -1.22652275	      2.47241502	     -0.03873850	     -1.02867697	      2.29581395	     -0.02383715	     -0.78139497	      2.11921288	     -0.29798106	     -5.70645332	     15.71523502	      0.00000000	      0.00000000	      8.38549197	     -2.64598125	      2.76668227	    -47.92172701	    -81.80535974	      7.93007297	     10.98674344	      4.98685280	    -11.33385183	      7.36901211	    -33.72339486	    -83.62684682	    -28.40678646	      5.43931630	     74.09512819	     -9.77866034	      7.10524588
      0.10000000	     -3.28823151	     -3.18993613	     77.88615252	      0.32258100	      0.79801012	      0.54335713	      1.41480086	     -5.42054759	     19.71796492	      0.63191417	      0.01102898	     18.65350556	    -11.99871568	      0.00000000	     -0.55354500	      3.68739094	     -0.81713942	      0.44176380	      0.00771023	     22.09156044	    -13.82926310	      0.00000000	     -0.04682253	     -0.50674074	      2.75102358	     -0.08695412	     -0.67396518	      2.92296255	     -0.07692473	     -1.23208943	      2.92296255	     -0.05351347	     -1.23208943	      2.40714563	     -0.04347940	     -1.03334571	      2.23520666	     -0.02675439	     -0.78494140	      2.06326768	     -0.33444863	     -5.73235256	     15.30036782	      0.00000000	      0.00000000	      9.28393556	     -2.47205540	      3.44128696	    -48.03775865	    -81.96613972	      7.98192806	     11.00850262	      4.94391724	    -11.43133943	      7.83905087	    -33.59067486	    -83.16769617	    -28.47390116	      5.14681380	     74.24040093	     -9.38281899	      6.97036136
      0.11666667	     -3.27450484	     -3.17684899	     77.88237900	      0.32277663	      0.79801266	      0.54314153	      1.37168083	     -5.40180951	     19.88527901	      0.62081003	      0.01083518	     18.72662406	    -11.93614057	      0.00000000	     -0.59896308	      3.68328114	     -0.85944023	      0.44345187	      0.00773970	     21.89896786	    -13.83713214	      0.00000000	     -0.03510244	     -0.49932157	      2.69754612	     -0.06518874	     -0.66409768	      2.86614275	     -0.05766979	     -1.21405046	      2.86614275	     -0.04011858	     -1.21405046	      2.36035285	     -0.03259612	     -1.01821654	      2.19175622	     -0.02005753	     -0.77344911	      2.02315959	     -0.25073320	     -5.64842543	     15.00294223	      0.00000000	      0.00000000	      9.65348887	     -2.26576744	      3.54861969	    -48.08168129	    -82.08107806	      8.00255927	     10.96454902	      4.94625464	    -11.48430291	      8.00821589	    -33.55816099	    -82.79635043	    -28.46917068	      4.98475232	     74.34659448	     -9.26045113	      6.95855351
      0.13333333	     -2.95471415	     -3.10541069	     78.07553228	      0.32267265	      0.79816485	      0.54320191	      1.19189145	     -5.07053874	     20.02862306	      0.62357869	      0.01088350	     18.64548023	    -12.19806133	      0.00000000	     -0.75489702	      3.37613717	     -0.33495700	      0.45324522	      0.00791062	     21.81278783	    -14.24063457	      0.00000000	     -0.04962308	     -0.45369106	      2.59703387	     -0.09215502	     -0.60340912	      2.75934849	     -0.08152576	     -1.10310445	      2.75934849	     -0.05671422	     -1.10310445	      2.27240463	     -0.04607999	     -0.92516682	      2.11009002	     -0.02835463	     -0.70276746	      1.94777540	     -0.35445269	     -5.13224406	     14.44392327	      0.00000000	      0.00000000	     10.28569125	     -1.52334119	      5.12712415	    -48.16494850	    -82.61909254	      8.35195647	     11.15906777	      5.03919590	    -11.49512723	      8.56031827	    -32.76509693	    -82.33122007	    -28.85039883	      4.54950336	     75.89889034	     -8.74283476	      6.60297328
      0.15000000	     -2.95287704	     -3.11373610	     78.06864048	      0.32274320	      0.79829585	      0.54284741	      1.16104937	     -5.04170047	     20.10035333	      0.61749596	      0.01077734	     18.67500603	    -12.17074552	      0.00000000	     -0.77422893	      3.40442572	     -0.28738810	      0.48633042	      0.00848807	     21.83089834	    -14.22972559	      0.00000000	     -0.03476624	     -0.45229769	      2.59152191	     -0.06456438	     -0.60155593	      2.75349203	     -0.05711745	     -1.09971661	      2.75349203	     -0.03973433	     -1.09971661	      2.26758167	     -0.03228393	     -0.92232545	      2.10561155	     -0.01986543	     -0.70060912	      1.94364143	     -0.24833175	     -5.11648194	     14.41326742	      0.00000000	      0.00000000	     10.39173593	     -1.47312409	      5.09194729	    -48.12766175	    -82.70359683	      8.37114871	     11.33515680	      5.06250725	    -11.44679548	      8.52378197	    -32.70405754	    -82.19068794	    -28.85038725	      4.66457100	     75.91889771	     -8.70960756	      6.59366613
      0.16666667	     -2.68453986	     -3.23177376	     78.05693038	      0.32269065	      0.79819097	      0.54276932	      1.20862997	     -4.75981723	     20.74549354	      0.61390563	      0.01071467	     18.97212569	    -12.01448253	      0.00000000	     -0.73449876	      3.11071416	      0.22736207	      0.46445349	      0.00810624	     22.16851024	    -14.17416193	      0.00000000	     -0.02649430	     -0.42078004	      2.56971293	     -0.04920256	     -0.55963745	      2.73031998	     -0.04352748	     -1.02308458	      2.73031998	     -0.03028033	     -1.02308458	      2.24849881	     -0.02460261	     -0.85805465	      2.08789175	     -0.01513884	     -0.65178828	      1.92728469	     -0.18924612	     -4.75994793	     14.29197238	      0.00000000	      0.00000000	     11.06972118	     -1.08618837	      4.89931726	    -48.13786228	    -83.10558762	      8.62476377	     11.68819728	      5.36154275	    -11.19279394	      7.84630499	    -32.32543889	    -81.92368722	    -29.06544903	      4.40198916	     76.00734346	     -8.60612651	      6.61441037
